<svg xmlns="http://www.w3.org/2000/svg" viewBox="0 0 973.13 798.24"><defs><style>.cls-1{fill:#c62f2d;}</style></defs><g id="Calque_2" data-name="Calque 2"><g id="Calque_13" data-name="Calque 13"><path class="cls-1" d="M800.17,598.68H684.35A373,373,0,0,1,569.13,712.74h231v85.5l173-142.52-173-142.54Z"/><path class="cls-1" d="M374.69,712.64c172.19-1.18,311.44-141,311.44-313.5C686.13,235.56,560.85,101.39,401,87V0L230,142.55,401,285.07V202.45c96.45,14,171.05,96.42,171.05,196.69,0,110-89.53,199.56-199.56,199.56H0v114H374.82C374.76,712.71,374.75,712.67,374.69,712.64Z"/><path class="cls-1" d="M233.3,541.68C196.18,505.42,173,455,173,399.14c0-66.27,32.82-124.68,82.68-161L166.05,163.5C100.51,221,58.92,305.11,58.92,399.14c0,51.51,13.23,99.67,35.24,142.54Z"/></g></g></svg>