<svg xmlns="http://www.w3.org/2000/svg" viewBox="0 0 665.22 754.39"><defs><style>.cls-1{fill:#1773b7;}.cls-2{fill:#35aadd;}.cls-3{fill:#fff;}.cls-4{fill:#ebebeb;}</style></defs><g id="Calque_2" data-name="Calque 2"><g id="Calque_2-2" data-name="Calque 2"><path class="cls-1" d="M60.55,679,0,0H665.22L604.6,678.9,332.2,754.39Z"/><path class="cls-2" d="M332.61,696.7l220.11-61L604.48,55.52H332.61Z"/><path class="cls-3" d="M332.61,301.51H442.82l7.59-85.27H332.61V133H541.46l-2,22.35L519,384.86H332.61Z"/><path class="cls-4" d="M333.06,517.79h-.37l-92.74-25L234,426.33H150.47l11.69,130.75,170.6,47.48h.49V517.79Z"/><path class="cls-3" d="M435.76,381.22l-10,111.44-92.89,25.06v86.76l170.72-47.32,1.24-14.09,14.49-161.89H435.76Z"/><path class="cls-4" d="M332.91,133v83.27H131.8l-1.72-18.7-3.8-42.22-2-22.35Zm-.3,168.5v83.27H240.92l-1.61-18.7-3.8-42.22-2-22.35h99.09Z"/></g></g></svg>