<svg xmlns="http://www.w3.org/2000/svg" viewBox="0 0 666.22 649.78"><defs><style>.cls-1{fill:#fff;}</style></defs><g id="Calque_2" data-name="Calque 2"><g id="Calque_5" data-name="Calque 5"><path class="cls-1" d="M333.11,0C149.16,0,0,149.14,0,333.11c0,147.18,95.45,272,227.8,316.09,16.65,3.09,22.76-7.22,22.76-16,0-7.94-.31-34.19-.45-62-92.67,20.15-112.23-39.3-112.23-39.3-15.15-38.51-37-48.74-37-48.74-30.23-20.68,2.27-20.26,2.27-20.26,33.46,2.36,51.07,34.33,51.07,34.33,29.71,50.93,77.93,36.21,96.94,27.7,3-21.54,11.62-36.23,21.14-44.55-74-8.42-151.76-37-151.76-164.62,0-36.37,13-66.09,34.32-89.42-3.46-8.39-14.86-42.27,3.23-88.15,0,0,28-9,91.63,34.14a316.19,316.19,0,0,1,166.82,0c63.58-43.09,91.52-34.14,91.52-34.14,18.13,45.88,6.72,79.76,3.26,88.15,21.36,23.33,34.28,53.05,34.28,89.42,0,127.94-77.92,156.11-152.1,164.36,12,10.33,22.6,30.61,22.6,61.68,0,44.57-.39,80.45-.39,91.42,0,8.86,6,19.25,22.88,16,132.29-44.1,227.61-168.92,227.61-316C666.22,149.14,517.08,0,333.11,0"/><path class="cls-1" d="M124.76,474.53c-.73,1.65-3.34,2.15-5.71,1s-3.77-3.34-3-5,3.33-2.18,5.74-1,3.8,3.37,3,5m16.39,14.62c-1.59,1.47-4.7.79-6.81-1.54s-2.58-5.43-1-6.93,4.65-.78,6.83,1.55,2.61,5.43,1,6.92m11.24,18.7c-2,1.42-5.38.09-7.44-2.87s-2-6.51,0-7.94,5.36-.14,7.45,2.8,2,6.56-.05,8m19,21.66c-1.83,2-5.72,1.47-8.56-1.28s-3.73-6.49-1.89-8.51,5.75-1.45,8.62,1.28,3.78,6.52,1.83,8.51M196,536.83c-.81,2.61-4.55,3.8-8.32,2.69s-6.24-4.2-5.48-6.84,4.55-3.86,8.35-2.67,6.23,4.17,5.45,6.82m28,3.1c.1,2.75-3.1,5-7.07,5.08s-7.2-2.14-7.24-4.84,3.12-5,7.11-5.09,7.2,2.12,7.2,4.85m27.47-1c.48,2.68-2.28,5.44-6.21,6.17s-7.45-.95-7.94-3.61,2.33-5.5,6.18-6.21,7.47.93,8,3.65"/></g></g></svg>