<svg xmlns="http://www.w3.org/2000/svg" viewBox="0 0 665.22 754.43"><defs><style>.cls-1{fill:#e44e28;}.cls-2{fill:#ec662b;}.cls-3{fill:#ebebeb;}.cls-4{fill:#fff;}</style></defs><g id="Calque_2" data-name="Calque 2"><g id="Calque_1-2" data-name="Calque 1"><path class="cls-1" d="M60.54,679,0,0H665.22l-60.6,678.91L332.2,754.43Z"/><path class="cls-2" d="M332.61,696.71l220.12-61,51.8-580.16H332.61Z"/><path class="cls-3" d="M332.61,307.36H222.41l-7.61-85.28H332.61V138.8H123.79l2,22.34,20.47,229.5H332.61Zm0,216.28-.36.1-92.75-25-5.93-66.42H150L161.64,563,332.23,610.4l.38-.11Z"/><path class="cls-4" d="M332.32,307.36v83.28H434.87l-9.66,108-92.89,25.07v86.64L503.05,563,504.3,549l19.57-219.25,2-22.36H332.32Zm0-168.56v83.28H533.48l1.67-18.72,3.8-42.22,2-22.34Z"/></g></g></svg>