<svg xmlns="http://www.w3.org/2000/svg" viewBox="0 0 691.39 691.39"><defs><style>.cls-1{fill:#f0db4f;}.cls-2{fill:#333431;}</style></defs><g id="Calque_2" data-name="Calque 2"><g id="Calque_3" data-name="Calque 3"><path class="cls-1" d="M0,0H691.39V691.39H0Z"/><path class="cls-2" d="M634.81,526.5c-5.07-31.55-25.64-58-86.56-82.75C527.09,434,503.49,427.06,496.46,411c-2.5-9.33-2.82-14.59-1.25-20.24,4.54-18.34,26.42-24,43.77-18.8,11.18,3.75,21.76,12.36,28.13,26.1,29.84-19.33,29.77-19.19,50.61-32.47-7.63-11.83-11.7-17.29-16.7-22.35-17.94-20-42.39-30.36-81.49-29.57-6.77.85-13.6,1.77-20.37,2.63-19.52,4.93-38.12,15.18-49,28.92-32.73,37.13-23.4,102.13,16.43,128.88,39.23,29.44,96.87,36.14,104.23,63.68,7.17,33.72-24.77,44.62-56.52,40.75-23.4-4.87-36.41-16.76-50.47-38.38-25.9,15-25.9,15-52.51,30.29,6.31,13.81,12.94,20,23.52,32,50.08,50.8,175.42,48.31,197.89-28.59C633.62,571.25,639.67,553.64,634.81,526.5ZM375.86,317.76H311.19c0,55.87-.26,111.34-.26,167.2,0,35.56,1.84,68.15-3.94,78.14-9.47,19.65-34,17.22-45.15,13.41C250.47,570.92,244.68,563,238,551.73c-1.84-3.22-3.22-5.71-3.68-5.91Q208,561.89,181.72,578c8.74,17.94,21.62,33.52,38.12,43.64,24.64,14.79,57.77,19.32,92.4,11.37,22.55-6.57,42-20.18,52.19-40.88,14.72-27.14,11.56-60,11.43-96.35.33-59.28,0-118.56,0-178Z"/></g></g></svg>