<svg xmlns="http://www.w3.org/2000/svg" viewBox="0 0 516.35 516.35"><defs><style>.cls-1{fill:#4e9aff;}</style></defs><g id="Calque_2" data-name="Calque 2"><g id="Calque_14" data-name="Calque 14"><path class="cls-1" d="M469.64,0H46.71A46.71,46.71,0,0,0,0,46.71V469.64a46.71,46.71,0,0,0,46.71,46.71H469.64a46.71,46.71,0,0,0,46.71-46.71V46.71A46.71,46.71,0,0,0,469.64,0ZM159.78,445.85a13.59,13.59,0,0,1-13.59,13.59H88.33a13.59,13.59,0,0,1-13.6-13.59V203.3a13.59,13.59,0,0,1,13.6-13.59h57.86a13.59,13.59,0,0,1,13.59,13.59Zm-42.52-279a55,55,0,1,1,55-55A55,55,0,0,1,117.26,166.84Zm344.9,280.1a12.5,12.5,0,0,1-12.5,12.5H387.57a12.5,12.5,0,0,1-12.5-12.5V333.17c0-17,5-74.37-44.35-74.37-38.26,0-46,39.29-47.58,56.92V446.94a12.5,12.5,0,0,1-12.5,12.5h-60a12.5,12.5,0,0,1-12.5-12.5V202.2a12.5,12.5,0,0,1,12.5-12.49h60a12.5,12.5,0,0,1,12.5,12.49v21.17c14.18-21.3,35.27-37.73,80.17-37.73,99.42,0,98.85,92.88,98.85,143.91V446.94Z"/></g></g></svg>