<svg xmlns="http://www.w3.org/2000/svg" xmlns:xlink="http://www.w3.org/1999/xlink" viewBox="0 0 727.03 445.19"><defs><style>.cls-1{fill:#fff;}.cls-2{fill:#549e42;}.cls-3{fill:#343434;}.cls-4{fill:url(#Dégradé_sans_nom_7);}.cls-5{mask:url(#mask);}.cls-6{fill:none;}.cls-7{fill:url(#Dégradé_sans_nom_2);}.cls-8{mask:url(#mask-2);}.cls-10,.cls-11,.cls-12,.cls-13,.cls-9{fill-rule:evenodd;}.cls-9{fill:url(#Dégradé_sans_nom_6);}.cls-10{fill:url(#Dégradé_sans_nom_6-2);}.cls-11{fill:url(#Dégradé_sans_nom_6-3);}.cls-12{fill:url(#Dégradé_sans_nom_6-4);}.cls-13{fill:url(#Dégradé_sans_nom_7-2);}</style><linearGradient id="Dégradé_sans_nom_7" x1="-136.87" y1="723.16" x2="-136.98" y2="722.95" gradientTransform="matrix(532.1, 0, 0, -606.29, 73123.2, 438574.46)" gradientUnits="userSpaceOnUse"><stop offset="0" stop-color="#448840"/><stop offset="0.33" stop-color="#428c3e"/><stop offset="0.64" stop-color="#439637"/><stop offset="0.93" stop-color="#41aa34"/><stop offset="1" stop-color="#46ac34"/></linearGradient><mask id="mask" x="190.3" y="101.74" width="156.12" height="176.82" maskUnits="userSpaceOnUse"><g id="c"><path id="a" class="cls-1" d="M272.64,102.88a8.46,8.46,0,0,0-8.38,0l-69.19,39.93A8.21,8.21,0,0,0,191,150v80a8.57,8.57,0,0,0,4.11,7.23l69.19,39.94a8.46,8.46,0,0,0,8.38,0l69.18-39.94a8.21,8.21,0,0,0,4.11-7.23V150a8.55,8.55,0,0,0-4.11-7.23Z"/></g></mask><linearGradient id="Dégradé_sans_nom_2" x1="-136.96" y1="723.05" x2="-136.62" y2="723.26" gradientTransform="matrix(519.69, 0, 0, -606.04, 71434.26, 438395.73)" gradientUnits="userSpaceOnUse"><stop offset="0.14" stop-color="#448840"/><stop offset="0.4" stop-color="#54a043"/><stop offset="0.71" stop-color="#6ab64a"/><stop offset="0.91" stop-color="#72b84d"/></linearGradient><mask id="mask-2" x="190.3" y="88.25" width="158.26" height="192.44" maskUnits="userSpaceOnUse"><g id="c-2" data-name="c"><path id="a-2" data-name="a" class="cls-1" d="M272.64,102.88a8.46,8.46,0,0,0-8.38,0l-69.19,39.93A8.21,8.21,0,0,0,191,150v80a8.57,8.57,0,0,0,4.11,7.23l69.19,39.94a8.46,8.46,0,0,0,8.38,0l69.18-39.94a8.21,8.21,0,0,0,4.11-7.23V150a8.55,8.55,0,0,0-4.11-7.23Z"/></g></mask><linearGradient id="Dégradé_sans_nom_6" x1="-260.12" y1="686.52" x2="-231.75" y2="686.52" gradientTransform="matrix(4.51, 0, 0, -1.69, 1376.42, 1251.54)" gradientUnits="userSpaceOnUse"><stop offset="0.09" stop-color="#72b84d"/><stop offset="0.29" stop-color="#6ab64a"/><stop offset="0.6" stop-color="#54a043"/><stop offset="0.86" stop-color="#448840"/></linearGradient><linearGradient id="Dégradé_sans_nom_6-2" x1="-137.11" y1="723.06" x2="-136.8" y2="723.06" gradientTransform="matrix(519.13, 0, 0, -606.53, 71366.68, 438747.83)" xlink:href="#Dégradé_sans_nom_6"/><linearGradient id="Dégradé_sans_nom_6-3" x1="-584.95" y1="797.94" x2="-556.57" y2="797.94" gradientTransform="matrix(1.69, 0, 0, -3.95, 1291.11, 3387.34)" xlink:href="#Dégradé_sans_nom_6"/><linearGradient id="Dégradé_sans_nom_6-4" x1="-138.69" y1="724.83" x2="-138.09" y2="724.83" gradientTransform="matrix(268.59, 0, 0, -167.59, 37438.2, 121726.69)" xlink:href="#Dégradé_sans_nom_6"/><linearGradient id="Dégradé_sans_nom_7-2" x1="-138.01" y1="725.59" x2="-138.37" y2="724.39" gradientTransform="matrix(268.59, 0, 0, -167.59, 37438.2, 121726.69)" xlink:href="#Dégradé_sans_nom_7"/></defs><g id="Calque_2" data-name="Calque 2"><g id="Calque_12" data-name="Calque 12"><path class="cls-2" d="M359.57,445.19a14.43,14.43,0,0,1-6.9-1.8l-21.86-13c-3.28-1.81-1.64-2.46-.65-2.79a40.1,40.1,0,0,0,9.86-4.44,1.5,1.5,0,0,1,1.64.17l16.76,10a2.08,2.08,0,0,0,2,0l65.57-38a1.89,1.89,0,0,0,1-1.81V317.83a1.89,1.89,0,0,0-1-1.81l-65.57-37.79a2.08,2.08,0,0,0-2,0L292.85,316a2.06,2.06,0,0,0-1,1.81v75.76a2.06,2.06,0,0,0,1,1.81l17.91,10.35c9.7,4.93,15.78-.82,15.78-6.57V324.4a2,2,0,0,1,2-2h8.38a2,2,0,0,1,2,2v74.78c0,13-7.07,20.54-19.4,20.54-3.78,0-6.73,0-15.12-4.11l-17.25-9.86a13.87,13.87,0,0,1-6.9-12V318a13.87,13.87,0,0,1,6.9-12l65.57-38a14.66,14.66,0,0,1,13.8,0L432,306A13.86,13.86,0,0,1,439,318v75.75a13.86,13.86,0,0,1-6.91,12l-65.57,38a16.73,16.73,0,0,1-6.9,1.48Zm20.22-52.09c-28.76,0-34.68-13.15-34.68-24.32a2,2,0,0,1,2-2h8.55a1.7,1.7,0,0,1,1.81,1.65c1.31,8.71,5.09,13,22.51,13,13.8,0,19.72-3.12,19.72-10.52,0-4.27-1.64-7.39-23.17-9.53-17.91-1.81-29.09-5.75-29.09-20.05,0-13.31,11.18-21.2,29.91-21.2,21,0,31.39,7.23,32.71,23a2.68,2.68,0,0,1-.5,1.48,2,2,0,0,1-1.31.65h-8.55a1.93,1.93,0,0,1-1.81-1.47c-2-9-7.06-12-20.54-12-15.12,0-16.93,5.26-16.93,9.2,0,4.77,2.14,6.25,22.52,8.88,20.21,2.63,29.74,6.41,29.74,20.54C412.49,384.88,400.66,393.1,379.79,393.1Z"/><path class="cls-3" d="M156.12,148.89a8.35,8.35,0,0,0-4.27-7.23l-69.68-40.1a10,10,0,0,0-3.78-1.15h-.66A7.8,7.8,0,0,0,74,101.56L4.27,141.66A8.35,8.35,0,0,0,0,148.89L.16,256.7a4.09,4.09,0,0,0,2.14,3.61,3.74,3.74,0,0,0,4.11,0l41.41-23.66a8.38,8.38,0,0,0,4.28-7.23V179a8.37,8.37,0,0,1,4.27-7.23L74,161.55a7.93,7.93,0,0,1,4.28-1.16,7,7,0,0,1,4.1,1.16l17.59,10.18a8.37,8.37,0,0,1,4.27,7.23v50.46a8.37,8.37,0,0,0,4.27,7.23l41.42,23.66a4,4,0,0,0,4.27,0,4.09,4.09,0,0,0,2.14-3.61l-.17-107.81ZM491,.49a4.57,4.57,0,0,0-4.11,0,4.3,4.3,0,0,0-2.13,3.62V110.93a3,3,0,0,1-4.44,2.63l-17.42-10a8.46,8.46,0,0,0-8.38,0L384.88,143.8a8.35,8.35,0,0,0-4.27,7.23v80.36a8.35,8.35,0,0,0,4.27,7.23l69.68,40.26a8.46,8.46,0,0,0,8.38,0l69.68-40.26a8.35,8.35,0,0,0,4.27-7.23V31.06a8.42,8.42,0,0,0-4.27-7.39L491,.49Zm-6.41,204.44a1.89,1.89,0,0,1-1,1.81l-23.83,13.8a2.44,2.44,0,0,1-2.14,0l-23.83-13.8a2.07,2.07,0,0,1-1-1.81V177.32a1.9,1.9,0,0,1,1-1.81l23.83-13.8a2.44,2.44,0,0,1,2.14,0l23.83,13.8a2.05,2.05,0,0,1,1,1.81v27.61Zm238.29-28.27a8.19,8.19,0,0,0,4.11-7.23V149.88a8.55,8.55,0,0,0-4.11-7.23l-69.18-40.1a8.46,8.46,0,0,0-8.38,0l-69.68,40.26a8.35,8.35,0,0,0-4.27,7.23V230.4a8.35,8.35,0,0,0,4.27,7.23l69.18,39.44a8.16,8.16,0,0,0,8.22,0L695,253.74a4.13,4.13,0,0,0,0-7.23l-70-40.26a4.28,4.28,0,0,1-2.14-3.62V177.49a4.09,4.09,0,0,1,2.14-3.62l21.86-12.49a4,4,0,0,1,4.27,0L673,173.87a4.29,4.29,0,0,1,2.13,3.62v19.72a4.06,4.06,0,0,0,2.14,3.61,4,4,0,0,0,4.27,0l41.41-24.16Z"/><path class="cls-2" d="M648.48,172.88a1.52,1.52,0,0,1,1.64,0l13.31,7.73a1.72,1.72,0,0,1,.83,1.48v15.45a1.7,1.7,0,0,1-.83,1.47l-13.31,7.73a1.48,1.48,0,0,1-1.64,0L635.17,199a1.69,1.69,0,0,1-.82-1.47V182.09a1.71,1.71,0,0,1,.82-1.48Z"/><path id="a-3" data-name="a" class="cls-4" d="M272.64,102.88a8.46,8.46,0,0,0-8.38,0l-69.19,39.93A8.21,8.21,0,0,0,191,150v80a8.57,8.57,0,0,0,4.11,7.23l69.19,39.94a8.46,8.46,0,0,0,8.38,0l69.18-39.94a8.21,8.21,0,0,0,4.11-7.23V150a8.55,8.55,0,0,0-4.11-7.23Z"/><g class="cls-5"><path class="cls-6" d="M264.09,102.88l-69.35,39.93A8.52,8.52,0,0,0,190.3,150v80a7.91,7.91,0,0,0,2.14,5.25l77.9-133.44a9.39,9.39,0,0,0-6.25,1Zm6.74,175.18a9.47,9.47,0,0,0,2-.82l69.35-39.94a8.35,8.35,0,0,0,4.28-7.23V150a8.36,8.36,0,0,0-2.47-5.75L270.83,278.06Z"/><path class="cls-7" d="M342,142.81l-69.52-39.93a11,11,0,0,0-2.13-.82L192.44,235.5a8.69,8.69,0,0,0,2.3,2l69.52,39.94a8,8,0,0,0,6.41.82L343.8,144.46a8.61,8.61,0,0,0-1.81-1.65Z"/></g><g class="cls-8"><path class="cls-6" d="M346.43,230.07V150a8.52,8.52,0,0,0-4.44-7.23l-69.52-39.93a7.3,7.3,0,0,0-2.63-1l76.09,130a3.28,3.28,0,0,0,.49-1.8ZM194.74,142.81A8.52,8.52,0,0,0,190.3,150v80a8.91,8.91,0,0,0,4.44,7.23l69.52,39.93a7.71,7.71,0,0,0,5.42,1L195.23,142.65l-.49.16Z"/><path class="cls-9" d="M262,88.25l-1,.49h1.31Z"/><path class="cls-10" d="M342.15,237.3a9.32,9.32,0,0,0,4.11-5.25L270,101.89a8.35,8.35,0,0,0-5.92,1l-69,39.77,74.44,135.74a11.42,11.42,0,0,0,3.13-1l69.51-40.09Z"/><path class="cls-11" d="M348.56,236l-.49-.82v1.15l.49-.33Z"/><path class="cls-12" d="M342.15,237.3,272.8,277.24a9.79,9.79,0,0,1-3.12,1l1.31,2.47,76.91-44.53v-1l-2-3.29a7.61,7.61,0,0,1-3.78,5.42Z"/><path class="cls-13" d="M342.15,237.3,272.8,277.24a9.79,9.79,0,0,1-3.12,1l1.31,2.47,76.91-44.53v-1l-2-3.29a7.61,7.61,0,0,1-3.78,5.42Z"/></g></g></g></svg>