<svg xmlns="http://www.w3.org/2000/svg" viewBox="0 0 755.56 570.17"><defs><style>.cls-1{fill:#41b38a;}.cls-2{fill:#304a5e;}.cls-3{fill:#158876;}</style></defs><g id="Calque_2" data-name="Calque 2"><g id="Calque_7" data-name="Calque 7"><path class="cls-1" d="M431.35,156l-25.91,45.61-88.6-156-272,478.94H229c0,25.19,20.08,45.61,44.86,45.61h-229A44.71,44.71,0,0,1,6,547.36a46.29,46.29,0,0,1,0-45.61L278,22.81a44.49,44.49,0,0,1,77.7,0Z"/><path class="cls-2" d="M627.69,501.75,457.26,201.65,431.35,156l-25.91,45.61L235,501.75a46.26,46.26,0,0,0,0,45.61,44.72,44.72,0,0,0,38.85,22.81H588.79a44.72,44.72,0,0,0,38.86-22.8,46.26,46.26,0,0,0,0-45.62ZM273.87,524.56,431.35,247.27,588.79,524.56Z"/><path class="cls-3" d="M749.55,547.37a44.73,44.73,0,0,1-38.85,22.8H588.79c24.78,0,44.86-20.42,44.86-45.61h77L492.25,140l-35,61.63L431.35,156l22.06-38.83a44.49,44.49,0,0,1,77.7,0L749.55,501.75A46.31,46.31,0,0,1,749.55,547.37Z"/></g></g></svg>