<svg xmlns="http://www.w3.org/2000/svg" viewBox="0 0 692.76 615.65"><defs><style>.cls-1{fill:#55c3ea;}.cls-2{fill:none;stroke:#55c3ea;stroke-miterlimit:10;stroke-width:24px;}</style></defs><g id="Calque_2" data-name="Calque 2"><g id="Calque_8" data-name="Calque 8"><circle class="cls-1" cx="346.38" cy="307.24" r="62.38"/><path class="cls-2" d="M346.38,180.4c83.76,0,161.57,12,220.23,32.22C637.3,237,680.76,273.84,680.76,307.24c0,34.8-46.06,74-122,99.14-57.38,19-132.9,28.94-212.41,28.94-81.51,0-158.7-9.32-216.73-29.15C56.22,381.08,12,341.38,12,307.24c0-33.13,41.49-69.73,111.19-94,58.88-20.53,138.61-32.81,223.18-32.81Z"/><path class="cls-2" d="M236,244.19c41.84-72.56,91.12-134,137.93-174.69C430.29,20.43,484,1.21,512.89,17.89,543,35.28,554,94.76,537.84,173.07c-12.19,59.22-41.33,129.59-81.05,198.46-40.72,70.62-87.35,132.83-133.52,173.19-58.42,51.06-114.89,69.54-144.47,52.49-28.7-16.54-39.68-70.78-25.91-143.29,11.64-61.27,40.83-136.47,83.07-209.73Z"/><path class="cls-2" d="M236.08,371.72c-42-72.47-70.53-145.84-82.46-206.74-14.35-73.36-4.21-129.45,24.7-146.19,30.12-17.44,87.11,2.79,146.91,55.89,45.2,40.13,91.63,100.51,131.46,169.32,40.84,70.55,71.45,142,83.36,202.17,15.07,76.12,2.87,134.28-26.68,151.38-28.67,16.6-81.14-1-137.08-49.11C329,507.76,278.45,444.91,236.08,371.72Z"/></g></g></svg>