<svg xmlns="http://www.w3.org/2000/svg" viewBox="0 0 623.24 591.65"><defs><style>.cls-1{fill:#664d9a;}</style></defs><g id="Calque_2" data-name="Calque 2"><g id="Calque_9" data-name="Calque 9"><path class="cls-1" d="M431.84,413.2a44.54,44.54,0,0,0-4.76-88.82h-1.59a44.36,44.36,0,0,0-42.82,46c.79,11.89,5.55,22.2,12.69,29.34-27,53.14-68.21,92-130.07,124.52-42,22.21-85.66,30.14-129.28,24.58C100.32,544.07,72.57,528.2,55.12,502c-25.38-38.86-27.76-80.89-6.35-122.93C63.84,349,87.63,326.76,102.7,315.65c-3.17-10.31-7.93-27.75-10.31-40.44-115,83.27-103.1,195.89-68.2,249,26.17,39.65,79.31,64.24,138,64.24a195.19,195.19,0,0,0,47.58-5.55C311.29,563.1,388.22,502.83,431.84,413.2Z"/><path class="cls-1" d="M571.43,314.86c-60.28-70.59-149.11-109.45-250.62-109.45H308.12a43.6,43.6,0,0,0-38.87-23.79h-1.58a44.43,44.43,0,0,0,1.58,88.83h1.59a44.68,44.68,0,0,0,38.86-27H324c60.27,0,117.38,17.45,168.93,51.55,39.65,26.18,68.2,60.28,84.07,101.52,13.48,33.31,12.69,65.83-1.59,93.59-22.21,42-59.48,65-108.65,65-31.73,0-61.87-9.52-77.73-16.66-8.72,7.94-24.58,20.63-35.69,28.56,34.11,15.86,69,24.58,102.31,24.58,76.14,0,132.45-42,153.86-84.07C632.49,461.58,630.91,382.27,571.43,314.86Z"/><path class="cls-1" d="M168.53,426.69a44.54,44.54,0,0,0,44.41,42.82h1.59a44.42,44.42,0,0,0-1.59-88.82h-1.58c-1.59,0-4,0-5.55.79-32.52-53.93-46-112.62-41.24-176.07,3.17-47.58,19-88.82,46.79-122.93,23-29.34,67.41-43.62,97.55-44.41C393,36.48,428.67,141.17,431.05,183.21c10.31,2.38,27.76,7.93,39.65,11.89C461.18,66.62,381.87,0,305.74,0,234.36,0,168.53,51.55,142.36,127.69c-36.48,101.52-12.69,199.07,31.72,276C170.12,409.24,167.74,418,168.53,426.69Z"/></g></g></svg>