<svg xmlns="http://www.w3.org/2000/svg" viewBox="0 0 640.75 560.86"><defs><style>.cls-1{fill:#5087c6;}</style></defs><g id="Calque_2" data-name="Calque 2"><g id="Calque_10" data-name="Calque 10"><path class="cls-1" d="M247.54,81.15H39c-21.5,0-39,17.1-39,38.15V522.72c0,21,17.49,38.14,39,38.14H247.53c21.5,0,39-17.11,39-38.14V119.3C286.53,98.27,269.05,81.15,247.54,81.15Zm13.14,441.57c0,6.78-5.9,12.29-13.14,12.29H39c-7.24,0-13.14-5.51-13.14-12.29v-61H260.68v61Zm0-387H25.85V119.3c0-6.78,5.91-12.3,13.14-12.3H247.53c7.25,0,13.14,5.52,13.14,12.3v16.43Z"/><circle class="cls-1" cx="143.26" cy="494.97" r="26.39"/><path class="cls-1" d="M599.08,0H211.32a41.72,41.72,0,0,0-41.67,41.66V72.52h34.47V41.66a7.21,7.21,0,0,1,7.2-7.19H599.08a7.19,7.19,0,0,1,7.18,7.19V291.54a7.19,7.19,0,0,1-7.18,7.2H299.17v34.47H388v15.08H337.34a17.24,17.24,0,0,0,0,34.47H472a17.24,17.24,0,0,0,0-34.47H422.44V333.21H599.08a41.72,41.72,0,0,0,41.67-41.67V41.67A41.72,41.72,0,0,0,599.08,0Z"/></g></g></svg>