<svg xmlns="http://www.w3.org/2000/svg" viewBox="0 0 696.89 522.37"><defs><style>.cls-1{fill:#cf649a;}</style></defs><g id="Calque_2" data-name="Calque 2"><g id="Calque_11" data-name="Calque 11"><path class="cls-1" d="M599.92,300a143.69,143.69,0,0,0-63.17,14.7c-6.53-12.93-13.06-24.23-14.15-32.67-1.23-9.8-2.72-15.79-1.23-27.49s8.31-28.32,8.31-29.68-1.5-7.21-15.52-7.35-26.14,2.72-27.5,6.4a156.37,156.37,0,0,0-5.85,20.82c-2.45,12.8-28,58.13-42.61,81.95-4.76-9.26-8.85-17.42-9.66-24-1.23-9.8-2.73-15.79-1.23-27.49s8.3-28.32,8.3-29.68-1.49-7.21-15.51-7.35-26.14,2.72-27.5,6.4-2.86,12.38-5.85,20.82S349.86,349.51,341,369.25c-4.49,10.07-8.44,18.1-11.3,23.55s-.14.4-.41.95L325.49,401v.14c-1.9,3.4-3.95,6.67-4.9,6.67-.68,0-2-9.12.27-21.64,5-26.28,17.29-67.25,17.15-68.75,0-.68,2.32-7.89-7.89-11.57-9.94-3.67-13.48,2.45-14.29,2.45s-1.5,2.18-1.5,2.18,11-46.14-21.1-46.14c-20.15,0-47.92,21.91-61.66,41.92-8.72,4.77-27.23,14.84-46.83,25.6-7.49,4.08-15.25,8.43-22.6,12.38l-1.49-1.63C121.72,301.05,49.71,271.65,52.7,215.84c1.09-20.29,8.17-73.78,138.3-138.58,106.59-53.09,191.94-38.52,206.77-6.12,21.1,46.28-45.6,132.31-156.4,144.7-42.2,4.76-64.39-11.57-70-17.7-5.85-6.4-6.67-6.67-8.85-5.45-3.54,1.91-1.36,7.63,0,11,3.27,8.58,16.88,23.82,40,31.45,20.28,6.67,69.83,10.34,129.73-12.8,67.11-26,119.51-98.15,104.13-158.45C420.78,2.53,319-17.62,222.72,16.55,165.41,37,103.34,68.82,58.69,110.61,5.6,160.16-2.84,203.45.7,221.42c12.39,64.11,100.73,105.9,136.12,136.8-1.76.95-3.4,1.9-4.9,2.72-17.69,8.71-85.07,44-101.95,81.27-19.06,42.19,3,72.55,17.69,76.64,45.47,12.65,92-10.08,117.21-47.51,25-37.44,22-86,10.48-108.22l-.41-.82,13.88-8.16c9-5.31,17.84-10.21,25.59-14.43-4.35,11.84-7.48,25.86-9.12,46.28-1.9,24,7.9,55,20.83,67.24,5.72,5.31,12.52,5.45,16.74,5.45,15,0,21.78-12.39,29.27-27.23,9.26-18.1,17.42-39.06,17.42-39.06s-10.2,56.76,17.7,56.76c10.21,0,20.42-13.2,25.05-20v.14s.27-.41.81-1.37,1.12-1.7,1.64-2.58v-.27c4.08-7.08,13.2-23.28,26.81-50.1C379.12,340.39,396,297.1,396,297.1a250.1,250.1,0,0,0,6.67,28c3,10.35,9.53,21.65,14.57,32.67-4.09,5.72-6.54,9-6.54,9l.14.13c-3.27,4.36-6.94,9-10.75,13.62-13.89,16.6-30.49,35.53-32.67,41-2.59,6.4-2,11.16,3,15,3.68,2.73,10.21,3.27,17.15,2.73a76.25,76.25,0,0,0,25.59-5.86,88.48,88.48,0,0,0,22.06-11.57c13.61-10.07,21.91-24.36,21.1-43.42-.41-10.48-3.82-20.83-8-30.63,1.23-1.77,2.46-3.54,3.68-5.44,21.51-31.45,38.11-66,38.11-66a250.69,250.69,0,0,0,6.67,28c2.59,8.85,7.76,18.51,12.39,28C489,348.83,476.32,367.89,472,380.41c-8,23.14-1.77,33.62,10.07,36.08,5.31,1.08,12.93-1.37,18.65-3.82a84.44,84.44,0,0,0,23.55-12.11c13.61-10.07,26.68-24.09,26-43-.41-8.71-2.72-17.28-5.85-25.45,17.15-7.08,39.34-11.16,67.51-7.76,60.58,7.08,72.56,44.92,70.24,60.71s-15,24.5-19.19,27.23-5.58,3.54-5.17,5.44c.54,2.86,2.45,2.72,6.12,2.18,5-.82,31.86-12.93,32.94-42.06,1.64-37.44-33.89-78.28-96.91-77.87ZM132.74,457.45c-20,21.92-48.19,30.22-60.17,23.14-12.93-7.48-7.89-39.74,16.75-63,15-14.16,34.44-27.22,47.23-35.26,2.86-1.77,7.22-4.35,12.39-7.48a13.84,13.84,0,0,1,1.36-.82c.95-.54,2-1.22,3.13-1.91,9.12,33.22.41,62.35-20.69,85.35ZM279.07,358c-6.94,17-21.64,60.71-30.49,58.26-7.62-2-12.25-35.12-1.5-67.79,5.45-16.47,17-36.07,23.82-43.7,11-12.25,23-16.33,26-11.3C300.44,300,283.43,347.33,279.07,358Zm120.74,57.71c-3,1.5-5.71,2.59-6.94,1.78-.95-.55,1.23-2.59,1.23-2.59s15.11-16.2,21.09-23.69c3.41-4.35,7.49-9.39,11.85-15.11v1.64c0,19.6-18.79,32.67-27.23,38Zm93.11-21.23c-2.18-1.63-1.9-6.67,5.45-22.46,2.86-6.26,9.39-16.74,20.69-26.68a33.63,33.63,0,0,1,2,11.71C521,381.5,503.54,390.62,492.92,394.43Z"/></g></g></svg>